# xmcd
#
# Track frame offsets:
#	150
#	16475
#	42400
#	59450
#	78700
#	90087
#	107137
#	126687
#	138675
#	155012
#	169350
#	198875
#	216987
#	231412
#	252237
#	267862
#	282825
#
# Disc length: 3937 seconds
#
# Revision: 1
# Processed by: cddbd v1.5.2PL0 Copyright (c) Steve Scherf et al.
# Submitted via: audiograbber 1.83.01
#
DISCID=040f5f11
DTITLE=Axel Zwingenberger - An Evening with Sippie Wallace
DYEAR=1984
DGENRE=Blues
TTITLE0=Mighty Tight Woman
TTITLE1=Gambler's Dream
TTITLE2=Electric Light
TTITLE3=Women, Be Wise
TTITLE4=Fan It and Cool It
TTITLE5=T.B. Blues
TTITLE6=My Man's In Trouble
TTITLE7=Mr. Freddie Blues
TTITLE8=Play It Maestro!
TTITLE9=The Fives
TTITLE10=Suitcase Blues
TTITLE11=You Got To Know How
TTITLE12=You Really Don't Know
TTITLE13=Nobody Knows
TTITLE14=You've Been A Good Old Wagon
TTITLE15=Shake It To A Jelly
TTITLE16=How Long Blues
EXTD=
EXTT0=
EXTT1=
EXTT2=
EXTT3=
EXTT4=
EXTT5=
EXTT6=
EXTT7=
EXTT8=
EXTT9=
EXTT10=
EXTT11=
EXTT12=
EXTT13=
EXTT14=
EXTT15=
EXTT16=
PLAYORDER=
